<svg id="Слой_1" data-name="Слой 1" xmlns="http://www.w3.org/2000/svg" viewBox="0 0 49.1 12.9"><title>social_2</title><path d="M54.4,5.1c-.5-.6-1.5-.9-3.5-.9H44c-2,0-3,.3-3.5,1s-.5,1.6-.5,3v2.6c0,2.6.6,4,4,4h7c1.7,0,2.6-.2,3.2-.8s.9-1.5.9-3.2V8.2c-.1-1.5-.1-2.4-.7-3.1ZM49.6,9.8l-3.1,1.6c-.1,0-.1.1-.2.1a.37.37,0,0,1-.3-.1.52.52,0,0,1-.2-.4V7.8a.52.52,0,0,1,.2-.4.45.45,0,0,1,.5,0L49.6,9c.2.1.3.2.3.4s-.1.4-.3.4Z" transform="translate(-6 -3)" style="fill:#fff"/><path d="M12.7,3H11A2.86,2.86,0,0,0,8,6.1V7.6H6.3a.32.32,0,0,0-.3.3V10a.32.32,0,0,0,.3.3H8v5.3a.32.32,0,0,0,.3.3h2.2a.32.32,0,0,0,.3-.3V10.3h2a.32.32,0,0,0,.3-.3V7.9c0-.1,0-.1-.1-.2a.35.35,0,0,0-.2-.1h-2V6.4c0-.6.1-.9.9-.9h1.1a.32.32,0,0,0,.3-.3v-2a.52.52,0,0,0-.4-.2Z" transform="translate(-6 -3)" style="fill:#fff"/><path d="M35,5.5a4.19,4.19,0,0,1-1.5.4,2.55,2.55,0,0,0,1.2-1.5A4.92,4.92,0,0,1,33,5a2.73,2.73,0,0,0-1.9-.8,2.69,2.69,0,0,0-2.7,2.7,1.27,1.27,0,0,0,.1.6A7.6,7.6,0,0,1,23,4.7,3.26,3.26,0,0,0,22.6,6a2.75,2.75,0,0,0,1.2,2.2,2.66,2.66,0,0,1-1.2-.3h0a2.6,2.6,0,0,0,2.1,2.6,1.7,1.7,0,0,1-.7.1h-.5A2.7,2.7,0,0,0,26,12.5a5.46,5.46,0,0,1-3.3,1.1h-.6a7.3,7.3,0,0,0,4.1,1.2,7.57,7.57,0,0,0,7.6-7.6V6.9A17.41,17.41,0,0,0,35,5.5Z" transform="translate(-6 -3)" style="fill:#fff"/></svg>